<?xml version="1.0" encoding="UTF-8"?>
<svg width="1440px" height="990px" viewBox="0 0 1440 990" version="1.1" xmlns="http://www.w3.org/2000/svg" xmlns:xlink="http://www.w3.org/1999/xlink">
    <!-- Generator: Sketch 52.4 (67378) - http://www.bohemiancoding.com/sketch -->
    <title>Artboard</title>
    <desc>Created with Sketch.</desc>
    <defs>
        <path d="M0.506761905,0.21075 C0.506761905,0.21075 10.5683333,1.14825 16.4252381,0.21075 C16.4252381,0.21075 15.7136667,5.712 7.98838095,5.778 C1.78742857,5.83125 0.506761905,0.21075 0.506761905,0.21075" id="path-1"></path>
        <path d="M0.2397,0.21075 C0.2397,0.21075 10.80435,1.14825 16.9541,0.21075 C16.9541,0.21075 16.20695,5.712 8.0954,5.778 C1.5844,5.83125 0.2397,0.21075 0.2397,0.21075" id="path-3"></path>
    </defs>
    <g id="Artboard" stroke="none" stroke-width="1" fill="none" fill-rule="evenodd">
        <rect fill="#FFFFFF" x="0" y="0" width="1440" height="990"></rect>
        <g id="Group-3" transform="translate(273.000000, 187.000000)">
            <g id="Group-4" transform="translate(0.000000, 123.000000)">
                <g id="Group">
                    <path d="M62.1619862,244 L37,380.909107 C37,380.909107 39.8599213,383.363616 45.0064897,380.909107 L78,246.6936 L62.1619862,244" id="Fill-37" fill="#6E6154"></path>
                    <path d="M154.838325,244 L180,380.909107 C180,380.909107 177.140829,383.363616 171.994159,380.909107 L139,246.6936 L154.838325,244" id="Fill-38" fill="#6E6154"></path>
                    <path d="M81.4797711,244 L60,360.075243 C60,360.075243 62.4411977,362.155946 66.8342135,360.075243 L95,246.283363 L81.4797711,244" id="Fill-39" fill="#51463E"></path>
                    <path d="M135.520729,244 L157,360.075243 C157,360.075243 154.558859,362.155946 150.165131,360.075243 L122,246.283363 L135.520729,244" id="Fill-40" fill="#51463E"></path>
                    <path d="M170.616815,234.207424 C157.151544,230.455311 134.800095,228 109.5,228 C84.1999049,228 61.8492611,230.455311 48.3839901,234.207424 L35,234.207424 L35,242.5 C35,250.508538 68.3549539,257 109.5,257 C150.645046,257 184,250.508538 184,242.5 L184,234.207424 L170.616815,234.207424" id="Fill-41" fill="#96453E"></path>
                    <path d="M184,234.5 C184,242.508538 150.645046,249 109.5,249 C68.3549539,249 35,242.508538 35,234.5 C35,226.491462 68.3549539,220 109.5,220 C150.645046,220 184,226.491462 184,234.5" id="Fill-42" fill="#A74C43"></path>
                    <path d="M136.352954,396.079385 C136.352954,396.079385 134.541242,403.192595 139.127089,405.198715 C143.712128,407.204836 161.011478,411.238577 171.851047,403.181018 C171.851047,403.181018 173.651447,401.931534 172.744782,396 L136.352954,396.079385" id="Fill-43" fill="#917D70"></path>
                    <path d="M11,229.020065 C11,229.020065 11.433321,207.867038 80.800385,179.334768 C80.800385,179.334768 117.376248,176.33154 165.807578,179.334768 C165.807578,179.334768 187.785229,188.73334 180.531566,257 L136.899225,255.913041 C136.899225,255.913041 133.370986,232.127158 130.031817,214.991048 C126.691838,197.854133 115.86287,209.368652 115.86287,209.368652 C115.86287,209.368652 29.4851167,280.206172 11,229.020065" id="Fill-44" fill="#002858"></path>
                    <path d="M86.0191321,44.8108103 C86.0191321,44.8108103 83.9497225,105 122.855429,105 C161.761135,105 156.794552,44.8108103 156.794552,44.8108103 C156.794552,44.8108103 158.636085,17 121.499442,17 C84.3636044,17 86.0191321,44.8108103 86.0191321,44.8108103" id="Fill-45" fill="#F6D8CD"></path>
                    <path d="M98.7588005,29.1546475 C98.7588005,29.1546475 107.020685,37.4462322 117.761938,33.5090867 C128.502387,29.5711309 126.436916,24.1568469 142.960685,29.1546475 C159.485257,34.1524482 158.037819,56 158.037819,56 C158.037819,56 167.334047,46.6469499 164.442387,30.8205811 C161.550728,14.9942123 152.874946,9.57992823 142.134496,11.6623452 C131.394047,13.7447621 119.827409,9.16344484 117.348844,3.33186711 C117.348844,3.33186711 113.583578,8.28267161 116.80716,11.6534321 C116.80716,11.6534321 111.553469,10.7499711 110.326242,0 C110.326242,0 104.129025,3.33186711 105.368308,14.1612455 C105.368308,14.1612455 97.1064236,10.412895 98.7588005,0 C98.7588005,0 87.1793036,3.33186711 90.2839397,21.2414631 C90.2839397,21.2414631 73.934571,22.8709341 87.1728742,56 C87.1728742,56 87.6052568,32.902998 98.7588005,29.1546475" id="Fill-46" fill="#2D2624"></path>
                    <path d="M156.388219,55.0095488 C156.388219,55.0095488 159.387691,45.5279241 165.617869,50.3842056 C171.847226,55.2404872 155,70 155,70 L156.388219,55.0095488" id="Fill-47" fill="#F2C9BA"></path>
                    <path d="M86.6117237,55.0095488 C86.6117237,55.0095488 83.6121285,45.5279241 77.3825153,50.3842056 C71.1520821,55.2404872 88,70 88,70 L86.6117237,55.0095488" id="Fill-48" fill="#F2C9BA"></path>
                    <path d="M145.63945,227.618812 C145.63945,227.618812 161.945306,220.623253 171.590535,225.287232 C181.235763,229.950391 212.469471,257.231429 223.033908,256.998517 C233.597537,256.765606 220.277897,235.378715 215.225481,231.848131 C210.173064,228.318368 205.809651,222.721921 203.972041,214.094339 C202.135239,205.466757 191.570802,194.17791 181.695368,203.505048 C171.819933,212.832186 133.020929,206.632956 133.020929,206.632956 C133.020929,206.632956 120.760237,230.406374 145.63945,227.618812" id="Fill-49" fill="#F6D8CD"></path>
                    <path d="M195.832014,196.733681 C195.832014,196.733681 193.763219,195.42576 190,196.302516 C190,196.302516 226.030548,235.666769 232.689428,258 C233.399101,257.558416 234.082731,257.05913 234.706136,256.434823 C234.706136,256.434823 240.954024,250.053098 195.832014,196.733681" id="Fill-50" fill="#917D70"></path>
                    <path d="M189.485453,196 C186.011603,196.80612 181.08937,199.472518 175,206.779274 C175,206.779274 179.162785,204.791004 184.923897,213.606652 C190.68501,222.421505 186.766999,234.401215 184.923897,237.565277 C184.923897,237.565277 217.230057,266.357443 232,257.202334 C225.368399,235.048337 189.485453,196 189.485453,196" id="Fill-51" fill="#353536"></path>
                    <path d="M142.616378,355.196843 C142.616378,355.196843 147.393183,379.609987 142.975824,386.045289 C142.975824,386.045289 128.571356,401.979582 144.490157,401.979582 C160.409791,401.979582 176.955126,403.205549 166.965521,386.657863 C166.965521,386.657863 159.161714,375.250089 166.341483,355.825753 C166.341483,355.825753 151.669094,340.896082 142.616378,355.196843" id="Fill-52" fill="#F6D8CD"></path>
                    <path d="M143.400648,380 C143.400648,380 152.843481,388.036392 165.982581,380 C165.982581,380 175.22484,392.187635 170.801099,400.0502 C165.793151,408.949958 140.191486,406.510618 136.975956,401.517428 C132.794972,395.026528 143.400648,380 143.400648,380" id="Fill-53" fill="#353536"></path>
                    <path d="M124,82.5901447 C124,82.5901447 103.146645,52.2715536 0,73.606919 L27.5798491,105 L124,82.5901447" id="Fill-57" fill="#CAC9C3"></path>
                    <path d="M122,82.5901447 C122,82.5901447 142.854034,52.2715536 246,73.606919 L218.419517,105 L122,82.5901447" id="Fill-58" fill="#CAC9C3"></path>
                    <path d="M123,82.4609647 C123,82.4609647 73.1677552,52.711564 3,85.1457759 C3,85.1457759 40.9888344,116.013373 47.6930811,143.526381 C49.01019,148.930998 48.8825442,152.901654 48.1402477,157.84239 C45.0117076,178.64459 43.2238543,195.593325 43.2238543,195.593325 C43.2238543,195.593325 87.9161224,177.973998 123,199 L123,82.4609647" id="Fill-59" fill="#E2E0DA"></path>
                    <path d="M123,82.4609647 C123,82.4609647 172.83272,52.711564 243,85.1457759 C243,85.1457759 205.011423,116.013373 198.307222,143.526381 C196.990122,148.930998 197.116954,152.901654 197.860058,157.84239 C200.988577,178.64459 202.776418,195.593325 202.776418,195.593325 C202.776418,195.593325 158.08364,177.973998 123,199 L123,82.4609647" id="Fill-60" fill="#EFECE9"></path>
                    <path d="M23.4354545,212.199613 C23.4354545,212.199613 7.04246301,220.102918 11.8996756,239.556957 C16.7568883,259.010996 32.5430316,262.049981 48.9352139,256.578836 C65.3282054,251.107692 140.614596,229.943363 140.614596,229.943363 C140.614596,229.943363 148.231754,206.320138 140.614596,204.297118 C120.212362,198.876205 23.4354545,212.199613 23.4354545,212.199613" id="Fill-61" fill="#1E426B"></path>
                    <path d="M158.698308,226.01893 C158.698308,226.01893 135.753255,224.156162 135.057926,257.387553 C134.362597,290.618133 140.156736,351.027933 140.156736,351.027933 C140.156736,351.027933 153.831002,357.715084 168.895927,351.027933 L178.862042,257.387553 C178.862042,257.387553 181.968608,228.970813 158.698308,226.01893" id="Fill-62" fill="#1E426B"></path>
                    <path d="M132,204.71559 C132,204.71559 137.0028,204.74933 136.764212,232.18482 C136.764212,232.18482 142.257631,236.268975 146.317838,232.18482 C150.378885,228.100666 146.317838,206.173643 142.257631,203.204517 C138.197424,200.235392 132.969476,199.830511 132,204.71559" id="Fill-63" fill="#748AA4"></path>
                    <path d="M139.79828,348 C139.79828,348 134.988622,355.055337 141.100896,359.866027 C147.213984,364.676718 165.471785,363.714238 170.683877,358.583006 C175.895154,353.451774 170.683877,348 170.683877,348 C170.683877,348 151.943807,356.017817 139.79828,348" id="Fill-64" fill="#748AA4"></path>
                    <path d="M135.727104,85.0247679 C135.261342,85.123161 134.845239,85.1969558 134.478794,85.2494322 L136.009643,89.2614109 C136.188585,89.7320579 136.283621,90.0370765 136.292183,90.1789265 C136.301601,90.3199566 136.263929,90.4954243 136.180879,90.7077895 C136.025055,91.0767636 135.66974,91.6974601 135.114935,92.5723387 C135.577272,92.6174356 135.941149,92.6289147 136.207421,92.6067763 C136.668902,92.5665991 137.092711,92.4780453 137.479704,92.3427548 C137.686044,92.2705999 137.982282,92.1394091 138.369275,91.9483625 L135.727104,85.0247679 Z M132.938526,85.522473 L132.554957,85.6184063 C132.125155,86.3522548 131.861451,87.0270675 131.763847,87.6444842 C131.631139,88.4767259 131.705627,89.259771 131.984741,89.9927996 C132.463346,91.2448518 133.390589,92.0787333 134.76647,92.4944442 C135.002776,92.1016917 135.126066,91.8081523 135.13634,91.612186 C135.145758,91.4162198 135.050722,91.056265 134.851232,90.5323218 L132.938526,85.522473 Z M138.177491,82 L138.510545,82.0819943 C138.578183,82.5493615 138.573902,82.9388342 138.499415,83.2495924 C138.424071,83.5587107 138.250266,83.8440507 137.976289,84.1047924 C137.702311,84.3655341 137.351277,84.5713397 136.921475,84.7205692 C136.692875,84.8017436 136.409479,84.8853777 136.072144,84.9731115 L138.657808,91.7482965 C139.2871,91.2956882 139.749438,90.8340606 140.04482,90.3650535 C140.340202,89.8944065 140.550822,89.2942086 140.678393,88.5619999 L140.995179,88.5923378 C141.01744,89.2622308 140.962645,89.8263513 140.829937,90.2830592 C140.619316,91.0201875 140.236604,91.6802413 139.680087,92.2624004 C139.124426,92.8445596 138.394961,93.2930682 137.493403,93.6079261 C136.615819,93.9154045 135.733097,94.0424956 134.843526,93.9875595 C134.328962,93.9555817 133.821247,93.8342302 133.322951,93.623505 C132.823798,93.4127798 132.364885,93.1069412 131.944501,92.7059893 C131.524116,92.3050375 131.197912,91.798313 130.964175,91.1858159 C130.727869,90.5683992 130.630264,89.9337637 130.672217,89.2794496 C130.71417,88.6267754 130.886262,87.9552424 131.188494,87.2664907 C131.382847,86.8335611 131.695352,86.321917 132.125155,85.7290985 L131.227878,85.9914801 C130.896536,86.0874134 130.560914,86.2800999 130.221867,86.5678997 C129.884532,86.8565195 129.652507,87.1639979 129.527505,87.4919749 C129.401646,87.8199519 129.352844,88.2602611 129.379385,88.8145422 L129.052325,88.7571462 C128.968419,88.0667546 128.985543,87.5018142 129.102839,87.0606852 C129.25952,86.4736063 129.56432,85.9554027 130.01724,85.5060742 C130.470159,85.0567457 131.048936,84.7082701 131.752716,84.4614674 C132.243308,84.2900994 133.146577,84.0859337 134.463382,83.8481504 C135.780187,83.6103671 136.670614,83.4094812 137.137232,83.2471326 C137.449738,83.1372603 137.671489,83.0077093 137.802484,82.8576599 C137.93348,82.7076104 138.058482,82.4222704 138.177491,82 Z" id="Fill-65" fill="#1B1A1C"></path>
                    <path d="M142.258117,82 L142.34774,82.144443 C142.130826,82.4373412 142.000288,82.7157951 141.954826,82.9814097 C141.909365,83.2478267 141.941838,83.6346128 142.050944,84.1441755 L142.524389,86.3461281 L143.859646,84.1289287 C144.281135,84.2998529 144.575333,84.5012706 144.741591,84.7331818 C144.908498,84.9658954 145.061117,85.4048415 145.199449,86.0492176 L145.857335,89.1122108 C145.983328,89.6988097 146.025541,90.1417681 145.985276,90.4450983 C145.923579,90.9386117 145.722901,91.4481744 145.383241,91.9745887 C144.939022,92.6703223 144.329194,93.3451919 143.553108,94 L143.421271,93.7688913 C144.04149,93.1838973 144.456485,92.7008158 144.666905,92.3188445 C144.877324,91.9368731 144.989678,91.5669386 145.002667,91.2098435 C145.01111,90.9418216 144.903952,90.287816 144.680543,89.2470242 L144.072014,86.4159422 C144.004472,86.1005751 143.932383,85.8903303 143.855749,85.7860104 C143.742746,85.6439749 143.566746,85.5252106 143.327751,85.4305203 L142.594529,86.6719272 L143.401788,90.4338638 L143.894066,90.789354 L143.14266,92.0740939 L141.958074,91.4241006 L142.276301,90.7524408 L140.95728,84.6096028 C140.837133,84.05109 140.715687,83.681958 140.591643,83.5006018 C140.4676,83.3192457 140.270169,83.1836298 140,83.0945566 L140.02338,82.9067808 C140.230553,82.9115956 140.401356,82.9356694 140.535791,82.9814097 C140.669577,83.025545 140.853369,83.1210378 141.087169,83.2662833 C141.254076,82.9324595 141.426179,82.6708573 141.604776,82.4814765 C141.783373,82.2928982 142.000937,82.132406 142.258117,82" id="Fill-66" fill="#1B1A1C"></path>
                    <path d="M148.35295,84.8146944 L148.269656,84.869961 L148.904095,87.3862159 L150.394053,86.0559168 L148.35295,84.8146944 Z M149.201463,84 L151.531372,85.4941482 L148.998287,87.7574772 L149.252063,88.7659298 L150.920286,89.0052016 L151.812393,88.2288687 L152,88.369961 L150.16908,90 C149.68099,89.8810143 149.284758,89.8042913 148.980383,89.7691808 C148.674451,89.73342 148.249416,89.7158648 147.703721,89.7158648 L147.668691,89.5773732 C147.800249,89.476593 147.878094,89.3673602 147.901448,89.2496749 C147.924801,89.1319896 147.891328,88.8920676 147.799471,88.529909 L147,85.3595579 C147.384556,85.1605982 147.700607,84.9856957 147.948934,84.8335501 C148.127978,84.7210663 148.546007,84.443433 149.201463,84 Z" id="Fill-67" fill="#1B1A1C"></path>
                    <path d="M161.352243,83.1649089 C162.53729,82.9115325 163.361519,82.758633 163.827539,82.7062103 C164.464838,82.634566 164.968244,82.725432 165.336017,82.9788083 C165.70466,83.2304373 165.911586,83.5589528 165.956797,83.9634813 C165.995922,84.3173345 165.869853,84.6781774 165.577721,85.0486311 C165.286459,85.4190848 164.626554,85.9136055 163.598876,86.5321933 L165.174301,86.766348 C165.788126,86.2840592 166.246321,85.7851699 166.550625,85.2714275 C166.85406,84.7568114 166.974912,84.2151102 166.911443,83.6445766 C166.870579,83.2715017 166.717557,82.9176485 166.453248,82.5821433 C166.188938,82.2457643 165.814209,81.9967565 165.327323,81.8342462 C164.840436,81.6726095 164.294428,81.6254291 163.690167,81.6927049 C163.202411,81.7477487 162.58337,81.8639524 161.833912,82.0421895 L161.352243,83.1649089 Z M160.165457,85.9310798 C160.649735,85.9826287 161.047069,86.0359251 161.35572,86.0918427 C161.664372,86.1468865 162.215597,86.2648376 163.010265,86.4456959 C164.162273,85.7528426 164.709151,85.1464868 164.650898,84.6266284 C164.63351,84.464118 164.545696,84.3260716 164.389197,84.2107417 C164.232698,84.0954117 164.044899,84.0499787 163.826669,84.0744427 C163.558012,84.1050226 163.230233,84.1653087 162.841594,84.2561747 C161.76088,84.4955716 161.047939,84.6344918 160.705379,84.6729351 L160.165457,85.9310798 Z M162.699005,79.1519516 C161.86956,78.8479 161.227043,78.653936 160.771457,78.5700597 C160.31587,78.4853097 159.920275,78.4625932 159.58554,78.5001628 C159.114304,78.5534592 158.745661,78.7308226 158.480482,79.0305057 C158.214433,79.3301888 158.101406,79.659578 158.1414,80.0177998 C158.180525,80.3707793 158.339633,80.6468721 158.618723,80.8452047 C158.896074,81.0435372 159.292539,81.1143078 159.80377,81.0566429 C160.140243,81.0190733 160.892309,80.883648 162.059097,80.650367 L162.699005,79.1519516 Z M161.264429,87.4941498 C159.969833,87.2145621 158.923027,87.1193275 158.125751,87.2110672 C157.713636,87.2565002 157.39716,87.3840621 157.177191,87.5928792 C157.025039,87.7317993 156.958962,87.8899411 156.97809,88.0664309 C156.998956,88.2534051 157.098072,88.3923253 157.275438,88.4849387 C157.557137,88.6378382 157.945776,88.6850187 158.443096,88.6299748 C159.205595,88.5443511 160.146329,88.166034 161.264429,87.4941498 Z M161.432231,82.1182024 C160.789715,82.2850813 160.161979,82.4030324 159.549893,82.4720556 C158.866513,82.5480685 158.37441,82.5218572 158.070106,82.3925479 C157.765802,82.2632386 157.524098,82.0343261 157.345863,81.707558 C157.010259,81.980156 156.861585,82.2877025 156.89984,82.6310711 C156.934618,82.9429862 157.103289,83.1841306 157.406724,83.355378 C157.807535,83.5755533 158.457007,83.6358394 159.355139,83.5344889 C159.777687,83.4873085 160.310653,83.3885791 160.95317,83.2383007 L161.432231,82.1182024 Z M159.72639,77.1057191 L163.249361,77.8658482 L163.451071,77.3914228 C163.524104,77.221049 163.57714,77.1144562 163.611048,77.0725181 L163.737986,77 L163.868402,77.0384433 L163.931871,77.1528995 C163.939696,77.2245439 163.892747,77.3722011 163.791892,77.596745 L162.461648,80.5778489 L163.755375,80.3454416 C164.145754,80.2860292 164.607426,80.2912715 165.140393,80.3585473 C165.674229,80.4266968 166.141988,80.5717329 166.545408,80.7945294 C166.948828,81.0164521 167.276607,81.2969135 167.530484,81.6332925 C167.783491,81.9696715 167.934774,82.3549783 167.982593,82.7883392 C168.070406,83.5851642 167.826094,84.4055793 167.247046,85.2495847 C166.667999,86.0918427 165.575983,87.0363249 163.970996,88.0786628 C163.349347,87.9240159 162.627711,87.7676215 161.808699,87.6112271 C160.468022,88.4194103 159.343836,88.8737404 158.435271,88.9750909 C157.788408,89.047609 157.273699,88.9619852 156.893754,88.7155986 C156.513809,88.4700856 156.302535,88.1607917 156.260802,87.7877169 C156.21733,87.3893044 156.38687,87.0005027 156.772032,86.623933 C157.157194,86.2456159 157.763194,86.0105875 158.590901,85.9171004 C158.91781,85.8804045 159.325578,85.8760359 159.815073,85.903121 L160.308045,84.748948 L159.216028,84.9595125 C158.956066,84.9935872 158.600465,84.9970821 158.150095,84.9673759 C157.699725,84.9394171 157.323257,84.852046 157.019823,84.7087573 C156.717258,84.5628474 156.48077,84.3697572 156.312098,84.1286128 C156.142558,83.8874684 156.042572,83.6253549 156.011272,83.3431461 C155.961714,82.8940583 156.075611,82.4790453 156.352093,82.0946122 C156.52772,81.849973 156.83724,81.6140708 157.279785,81.3860321 L157.262397,81.2960398 C157.21023,80.8268567 157.358035,80.2650602 157.704072,79.6106502 C158.050979,78.9571139 158.724795,78.1218457 159.72639,77.1057191 Z" id="Fill-68" fill="#1B1A1C"></path>
                    <path d="M168,80.2157105 L169.922718,78.0091792 L170.13758,78 L170.174947,79.6981465 L171.658599,79.631068 L171.703609,80.3195057 L170.219108,80.3865843 L170.490021,84.525684 L171.350318,84.9980583 L171.802972,84.6697264 L172,84.8448367 L170.441614,86 C169.857325,85.5544572 169.209342,85.262842 168.499363,85.1265666 L168.49087,85.003707 C168.680255,84.8843778 168.803397,84.7636364 168.859448,84.6414828 C168.933333,84.486143 168.961359,84.2651368 168.941826,83.9777582 L168.712527,80.4536628 L168.017834,80.4854369 L168,80.2157105" id="Fill-69" fill="#1B1A1C"></path>
                    <path d="M175.433249,81.9668277 L173.65111,81.3549114 C173.388735,81.8167472 173.262996,82.2186795 173.271378,82.563285 C173.286467,83.1700483 173.656978,83.6647343 174.382072,84.047343 L175.467618,83.3478261 L175.433249,81.9668277 Z M175.393013,80.2953301 L172.880749,79.7426731 L173.80535,81.1758454 L175.42822,81.7323671 L175.393013,80.2953301 Z M177.198624,79.2028986 L177.463514,79.2776167 C177.207845,79.5951691 177.047737,79.8380032 176.980676,80.005475 C176.914454,80.173591 176.884277,80.3983897 176.891821,80.6830918 L176.950499,83.0727858 C176.95972,83.4695652 177.002471,83.7169082 177.077915,83.8148148 C177.153358,83.9133655 177.242213,83.9610306 177.344481,83.9590982 L177.509618,83.9249597 C177.543987,83.9069243 177.647931,83.8412238 177.817259,83.7278583 L178,83.899839 L176.474368,84.9542673 C176.092121,84.7352657 175.835614,84.5375201 175.704846,84.3623188 C175.573239,84.1858293 175.496119,83.9391304 175.474324,83.6215781 L173.290658,85 C172.444016,84.4879227 172.013151,83.9771337 172.000577,83.4676329 C171.992194,83.1268921 172.075182,82.8061192 172.248702,82.5033816 C172.478385,82.1066023 172.879911,81.6415459 173.453281,81.1088567 L172.539578,79.678905 L172.637654,79.5326892 C172.827939,79.5404187 172.969605,79.5442834 173.060975,79.5429952 C173.634345,79.5352657 174.134786,79.3529791 174.563136,79 C174.921911,79.1539452 175.31254,79.2756844 175.734185,79.3658615 C176.156667,79.4560386 176.479397,79.4991948 176.703213,79.4959742 C176.80548,79.494686 176.8826,79.4798712 176.934572,79.4515298 C176.987383,79.4231884 177.0754,79.3400966 177.198624,79.2028986 Z" id="Fill-70" fill="#1B1A1C"></path>
                    <path d="M183.977255,79.0425532 L185,80.0799484 L183.931128,80.8175371 L183.078575,79.9032882 L182.379513,80.3978079 L182.294417,83.6653772 L183.072213,84.139265 L183.797519,83.696325 L183.952601,83.8787879 L182.145697,85 C181.775091,84.7201805 181.463337,84.51902 181.21123,84.3939394 C180.957531,84.2701483 180.68077,84.172147 180.377764,84.098646 L180.380945,83.9754997 C180.586925,83.863314 180.72292,83.7485493 180.78893,83.6318504 C180.854143,83.5145068 180.890727,83.2894907 180.899475,82.9568021 L180.959122,80.6653772 C180.967075,80.377176 180.932082,80.1850419 180.854939,80.0883301 C180.778591,79.9909736 180.692699,79.9419729 180.598059,79.9400387 C180.493876,79.9387492 180.349928,80.0116054 180.164625,80.1579626 L180,79.9916183 L181.469699,79 C181.857802,79.2508059 182.121043,79.4667956 182.26022,79.6486138 C182.350087,79.7627337 182.392238,79.9187621 182.387466,80.1173436 L183.977255,79.0425532" id="Fill-71" fill="#1B1A1C"></path>
                    <path d="M195.222077,80.6781545 C195.658979,80.9963427 196.04148,81.2250668 196.368731,81.3651709 C196.696832,81.506119 197.043633,81.5964271 197.412535,81.6360951 C197.829036,81.6799831 198.231937,81.6571951 198.622089,81.566887 C199.01224,81.475735 199.474642,81.2908989 200.011843,81.0098467 C199.812093,80.2823182 199.406641,79.6712618 198.794639,79.1783655 C198.182637,78.6854691 197.466935,78.3959769 196.647532,78.3082009 C196.298181,78.2710648 195.90633,78.2938529 195.471128,78.3765649 L195.222077,80.6781545 Z M194.953477,83.1628921 C195.407378,83.005064 195.789879,82.9029399 196.10013,82.8565199 C196.410381,82.8109439 196.739332,82.8058799 197.087834,82.8430159 C197.529835,82.8911239 197.933586,82.998312 198.299938,83.1662681 C198.667139,83.3350682 199.05559,83.5924884 199.464442,83.9393726 C199.639542,83.6076804 199.778093,83.2878042 199.880943,82.978056 C199.983793,82.6683078 200.050944,82.3712196 200.081544,82.0834154 C200.103644,81.8783233 200.101944,81.6436911 200.076444,81.3795189 C199.499292,81.6605711 199.01479,81.8445632 198.620389,81.9289633 C198.225987,82.0142073 197.823086,82.0344634 197.410835,81.9905753 C197.052984,81.9525953 196.705332,81.8648192 196.367031,81.7280912 C196.02958,81.5913631 195.633479,81.3702349 195.180427,81.0655507 L194.953477,83.1628921 Z M195.120927,78.441553 L194.174874,78.7884372 L193.494872,85.0821494 C193.415821,85.8138979 193.286621,86.3270502 193.10557,86.6241384 C192.92452,86.9195386 192.607469,87.1896188 192.154417,87.431847 C192.664419,87.446195 193.04012,87.3854269 193.284071,87.2486988 C193.642772,87.0503587 193.903723,86.7887185 194.064374,86.4629343 C194.225874,86.1371501 194.350825,85.5657617 194.440075,84.7470812 L195.120927,78.441553 Z M198.043237,77 C198.87879,77.3021522 199.519692,77.6304684 199.966793,77.9891687 C200.569445,78.471937 201.006347,79.0315094 201.277498,79.6653538 C201.549498,80.3008862 201.648099,80.9575186 201.574999,81.6352511 C201.523148,82.1129554 201.389698,82.5788437 201.174647,83.03376 C200.958747,83.4895203 200.634895,83.9815727 200.200544,84.512449 C200.046693,84.7031931 199.309741,85.4999297 197.993937,86.9018146 C198.610189,86.7068505 199.214541,86.6410184 199.807843,86.7043185 C200.062844,86.7321705 200.277894,86.7726825 200.452995,86.8283866 C200.628095,86.8840906 200.761546,86.9170066 200.855046,86.9271346 C200.938346,86.9364186 201.019947,86.9068786 201.098147,86.8385146 C201.177197,86.7701505 201.363348,86.5152623 201.657449,86.073006 L202,86.2468702 L200.483595,88.4623716 C199.840143,88.1669714 199.300391,87.9964833 198.86349,87.9500633 C198.367938,87.8968913 197.949736,87.9483753 197.610585,88.1053594 C197.271434,88.2606555 196.925483,88.5594317 196.576132,89 L196.293931,88.8176959 C196.514082,88.3399916 196.880433,87.7534112 197.392135,87.0587987 C198.234487,85.9227739 198.87454,84.9850893 199.311441,84.2482768 C198.89664,83.9089886 198.511588,83.6566324 198.157137,83.4937403 C197.802686,83.3300042 197.418485,83.2261922 197.006233,83.1823041 C196.663682,83.1460121 196.335581,83.1544521 196.02448,83.2076241 C195.713379,83.2599522 195.341928,83.3772683 194.910976,83.5587284 L194.771576,84.8449852 C194.687426,85.6299058 194.586275,86.1852581 194.468975,86.5135743 C194.350825,86.8402026 194.133224,87.1642988 193.813623,87.481643 C193.494022,87.8006752 193.09962,88.0521874 192.631269,88.2361795 C192.161217,88.4210156 191.689466,88.4868477 191.213464,88.4362076 C191.022213,88.4159516 190.835213,88.3771276 190.652462,88.3172035 C190.547062,88.2868195 190.248711,88.1703474 189.756559,87.9669433 C189.265258,87.7643832 188.988157,87.6521311 188.926106,87.6310311 C188.790956,87.5913631 188.645605,87.564355 188.488355,87.546631 C188.257154,87.522999 188.049753,87.533127 187.863603,87.5770151 C187.677452,87.6209031 187.453052,87.7137431 187.190401,87.8530032 L187,87.6479111 C187.596702,86.8191025 188.323454,86.4502743 189.182807,86.5414264 C189.531308,86.5794064 189.97586,86.6882825 190.517312,86.8688986 C190.847963,86.9786187 191.074064,87.0393867 191.198164,87.0528907 C191.462515,87.0807427 191.702216,86.9988747 191.916416,86.8072865 C192.130617,86.6173864 192.255568,86.3532142 192.292118,86.018146 C192.338018,85.5902377 192.228367,85.2155015 191.964017,84.8922493 C191.698816,84.568997 191.351165,84.3841609 190.919363,84.3385849 C190.634612,84.3082009 190.318411,84.3951329 189.96906,84.5993811 L189.779509,84.3909129 C190.03026,84.1402448 190.269961,83.9663806 190.498612,83.8693206 C190.727262,83.7722605 190.977163,83.7385005 191.246614,83.7671965 C191.403865,83.7832325 191.564515,83.8279646 191.727716,83.8988606 C191.890916,83.9714446 192.057517,84.0701927 192.228367,84.1967928 C192.190967,83.7587565 192.079617,83.4152483 191.893466,83.1628921 C191.568765,82.7248558 191.129314,82.4758757 190.575962,82.4159516 C190.340511,82.3906316 190.14416,82.3948516 189.98691,82.4269236 C189.86536,82.4539316 189.708959,82.5231397 189.517708,82.6362358 L189.366408,82.3577156 C189.659659,82.1197074 189.92316,81.9601913 190.155211,81.8791673 C190.387261,81.7981432 190.636312,81.7728232 190.900663,81.8006752 C191.125914,81.8243072 191.331614,81.8800113 191.516065,81.9652553 C191.700516,82.0521874 191.942766,82.2192995 192.242817,82.4682796 C192.286168,82.0732874 192.254718,81.7534112 192.150167,81.507807 C192.045617,81.2630468 191.839916,81.0284147 191.534765,80.8030665 C191.229614,80.5785624 190.921913,80.4494303 190.613362,80.4165143 C190.333711,80.3869743 190.04131,80.4544943 189.736159,80.6190744 L189.582309,80.3549022 C189.828809,80.1405261 190.05236,80.000422 190.253811,79.933746 C190.507112,79.8383739 190.773163,79.8054579 191.053664,79.8358419 C191.294214,79.8611619 191.513515,79.9202419 191.711566,80.012238 C191.910466,80.1050781 192.157817,80.2721902 192.453618,80.5161063 L192.630419,78.8863413 L198.043237,77 Z" id="Fill-72" fill="#1B1A1C"></path>
                    <path d="M206.047057,83.5101725 L205.934811,83.5367094 L205.369262,86.1247236 L207.552885,85.3246351 L206.047057,83.5101725 Z M207.318031,83 L209,85.1448474 L205.285509,86.506192 L205.060153,87.5431225 L206.666139,88.2894737 L207.96388,87.8297214 L208.089941,88.0221141 L205.408116,89 C204.962585,88.7359575 204.590445,88.5395843 204.29256,88.4115436 C203.994675,88.2828395 203.564686,88.1335692 203,87.9630694 L203.031084,87.8210969 C203.215858,87.7666962 203.348827,87.6870854 203.42999,87.5829279 C203.512016,87.478107 203.593179,87.2386112 203.674342,86.8664308 L204.386674,83.6070323 C204.878831,83.5373728 205.290689,83.4697037 205.620521,83.4026979 C205.860555,83.3516143 206.426104,83.2176028 207.318031,83 Z" id="Fill-73" fill="#1B1A1C"></path>
                    <path d="M214.212742,86.0764567 L213.58155,89.7670866 L214.955527,90.9554331 L215.658556,86.8499213 C215.720629,86.4861417 215.734578,86.2280315 215.700403,86.078189 C215.665531,85.9274803 215.533713,85.6858268 215.304252,85.3514961 L214.212742,86.0764567 Z M211.502451,85.296063 L210.853125,89.0854331 L212.218035,90.2564567 L212.907116,86.2332283 C212.978953,85.809685 212.994297,85.5030709 212.953147,85.3116535 C212.910603,85.1202362 212.78018,84.8907087 212.560483,84.6213386 L211.502451,85.296063 Z M214.277605,85.7005512 L216.349729,84.3892126 C216.662885,84.8162205 216.853288,85.1722047 216.920941,85.4571654 C217.016492,85.8425984 217.025559,86.2644094 216.947444,86.7217323 L216.182341,91.193622 C215.738066,91.2464567 215.355863,91.3330709 215.036431,91.4551969 C214.717696,91.5755906 214.383618,91.7583465 214.034892,92 C213.455311,91.2966929 212.941988,90.8870079 212.494225,90.7683465 C212.07436,90.6574803 211.609161,90.8099213 211.099325,91.2256693 C210.775708,90.7189764 210.449301,90.3274803 210.1215,90.0537795 C209.793001,89.7783465 209.419168,89.5713386 209,89.4292913 L209.02999,89.2525984 C209.223881,89.2110236 209.371043,89.1183465 209.472871,88.9728346 C209.574001,88.8264567 209.665367,88.5146457 209.746969,88.0382677 L210.226117,85.2406299 C210.300744,84.8023622 210.33492,84.5338583 210.330037,84.4316535 C210.325155,84.3294488 210.281216,84.1891339 210.201009,84.0081102 C210.071981,83.7170866 209.993866,83.4762992 209.964574,83.285748 C209.934583,83.0951969 209.939465,82.8873228 209.977825,82.6612598 C210.048268,82.2472441 210.212866,81.9120472 210.473015,81.653937 C210.732466,81.3958268 211.148146,81.1784252 211.72145,81 L211.796078,81.22 C211.304375,81.4755118 211.02958,81.7795276 210.970297,82.1285827 C210.948676,82.2507087 210.95286,82.3728346 210.981456,82.4932283 C210.996102,82.5538583 211.104904,82.8015748 211.307862,83.236378 C211.44526,83.523937 211.535929,83.8279528 211.580565,84.1475591 C211.605674,84.3407087 211.599397,84.6040157 211.563827,84.9374803 L213.592012,83.6607874 C213.86332,84.0055118 214.050934,84.3372441 214.155551,84.6585827 C214.259471,84.978189 214.299924,85.326378 214.277605,85.7005512 Z" id="Fill-74" fill="#1B1A1C"></path>
                    <path d="M220.228949,88.8515767 L220.860738,89.4979438 L222.422519,88.0776655 C222.166644,88.0848714 221.951836,88.0632537 221.778095,88.012092 C221.340897,87.8823862 220.954243,87.5919894 220.617499,87.1380192 L220.228949,88.8515767 Z M221.019948,89.6752084 L219.290744,91.2590601 C219.461327,91.2446484 219.616746,91.2424866 219.758267,91.2547366 C219.899788,91.2655454 220.025514,91.2878837 220.135445,91.3203101 C220.544212,91.4399277 220.933393,91.7195157 221.304253,92.157633 L221.703544,90.3950755 L221.019948,89.6752084 Z M221.884867,88.891209 L222.954485,89.9929876 L222.374503,92.5510739 C222.068717,92.494868 221.77999,92.498471 221.507057,92.5611621 C221.234757,92.6231326 220.909386,92.7694119 220.530944,93 C220.307923,92.7434708 220.107646,92.5517945 219.929482,92.4264122 C219.751317,92.3003094 219.553568,92.2051918 219.336864,92.1410595 C219.002648,92.042339 218.679173,92.0704419 218.367701,92.2246476 C218.252084,92.2815741 218.173742,92.3039123 218.13078,92.2909417 L218.02843,92.1900594 L218,92.0394566 C218.011372,91.9897361 218.063179,91.9364126 218.156052,91.8773244 C218.209122,91.841295 218.303258,91.7699568 218.437829,91.6618687 L219.077831,91.1171044 L220.000242,90.2797815 L218.997594,89.2205176 L219.511238,86.9542693 C219.906737,86.9326517 220.227054,86.8728429 220.471556,86.7741224 C220.716058,86.6754019 220.966246,86.5147108 221.221489,86.2913286 C221.626465,86.6444166 221.957522,86.9067105 222.21466,87.0774898 C222.399143,87.1971073 222.582993,87.2828573 222.764316,87.3361808 C222.963961,87.395269 223.130122,87.3909454 223.263429,87.3246514 C223.396736,87.2583573 223.475078,87.1704456 223.50035,87.0601957 C223.516776,86.9881369 223.497823,86.9045487 223.442857,86.8108723 C223.336717,86.6278431 223.298809,86.4700344 223.328503,86.3360051 C223.357566,86.2106228 223.410636,86.1191082 223.487714,86.0621817 C223.564792,86.0052553 223.641239,85.9872406 223.71579,86.0088582 C223.81498,86.0384023 223.89269,86.1169464 223.949551,86.2437698 C224.00578,86.3698727 224.015257,86.5190343 223.976718,86.689093 C223.936915,86.8634752 223.866155,87.0241663 223.764437,87.1711662 C223.662719,87.3188867 223.490873,87.4968718 223.248898,87.7065628 L221.884867,88.891209 Z" id="Fill-75" fill="#1B1A1C"></path>
                    <path d="M127.309167,101 C127.309167,101 127.393049,100.962072 127.562411,100.88794 C130.109241,99.781992 151.543988,90.8602774 179.329031,90.8620014 C193.073761,90.8620014 208.371512,93.043727 223.713202,99.4251234 L224,98.6208761 C208.548863,92.1937936 193.152051,90 179.329031,90 C149.522822,90.001724 127.02876,100.193167 127,100.205235 L127.309167,101" id="Fill-76" fill="#1B1A1C"></path>
                    <path d="M126,106.318563 L126,145 C126,145 148.719097,134.833558 167,136.615239 L167,97 C167,97 143.062338,97.4077276 126,106.318563" id="Fill-77" fill="#CAC9C3"></path>
                    <path d="M127.458333,149 L127.591912,148.968168 C127.683824,148.947172 127.821078,148.914663 128,148.873349 L126.577206,147 C126.204657,147.086014 126.006127,147.133424 126,147.134778 L127.458333,149" id="Fill-78" fill="#1B1A1C"></path>
                    <path d="M129.912781,148 C130.1449,147.908747 130.391062,147.812562 130.65044,147.711444 L129.75005,145.41368 C129.486541,145.516442 129.236249,145.614272 129,145.707169 L129.912781,148 Z M132.87333,146.867971 C133.115362,146.778362 133.363175,146.68711 133.616772,146.594212 L132.76264,144.279184 C132.504914,144.373726 132.252969,144.466623 132.007634,144.557054 L132.87333,146.867971 Z M135.855356,145.794311 C136.101518,145.708813 136.350984,145.622493 136.60458,145.53535 L135.795881,143.20388 C135.538981,143.292667 135.285385,143.379809 135.035919,143.466952 L135.855356,145.794311 Z M138.857208,144.781486 C139.105848,144.700099 139.356966,144.618711 139.610562,144.538145 L138.852252,142.190233 C138.594525,142.272443 138.338451,142.355475 138.085681,142.437685 L138.857208,144.781486 Z M141.878059,143.833607 C142.129177,143.757974 142.381947,143.682341 142.635543,143.60753 L141.931752,141.242354 C141.673199,141.31881 141.415473,141.396087 141.159398,141.472542 L141.878059,143.833607 Z M144.916256,142.958895 C145.169026,142.889839 145.422622,142.821605 145.676218,142.754193 L145.036033,140.370931 C144.776654,140.440809 144.517276,140.510687 144.259549,140.580566 L144.916256,142.958895 Z M147.970148,142.170503 C148.226223,142.108846 148.482297,142.048011 148.737545,141.988819 L148.173356,139.587471 C147.910673,139.648306 147.64799,139.710786 147.385308,139.774087 L147.970148,142.170503 Z M151.044692,141.484051 C151.301592,141.432259 151.558493,141.381289 151.815393,141.331141 L151.342895,138.910062 C151.077734,138.961855 150.812573,139.014469 150.547412,139.067905 L151.044692,141.484051 Z M154.131626,140.924203 C154.391005,140.88392 154.648731,140.845281 154.905631,140.808287 L154.551258,138.367478 C154.283619,138.405294 154.014328,138.446399 153.745037,138.488326 L154.131626,140.924203 Z M157.226821,140.526307 C157.486199,140.501644 157.743926,140.478625 158,140.458073 L157.803401,138 C157.532458,138.021375 157.259863,138.045215 156.985615,138.072345 L157.226821,140.526307 Z" id="Fill-79" fill="#1B1A1C"></path>
                    <path d="M159.284,139 C159.445,138.998003 159.605,138.997337 159.764,138.997337 L159.755,137 C159.584,137 159.41,137.001332 159.236,137.002663 L159.285,139" id="Fill-80" fill="#1B1A1C"></path>
                    <path d="M126.093559,151 C126.094366,150.99918 126.3573,150.85971 126.868651,150.611945 C130.444879,148.877595 146.081402,141.886865 167,141.205103 L166.993548,141 C143.039914,141.781852 126.008065,150.813767 126,150.817869 L126.093559,151" id="Fill-81" fill="#1B1A1C"></path>
                    <path d="M127,155.899698 L127,191 C127,191 131.286069,187.689722 139,186.972495 L139,151 C139,151 134.388375,151.871382 127,155.899698" id="Fill-82" fill="#CAC9C3"></path>
                    <path d="M141,150.245816 L141,186 C141,186 146.12972,183.186242 153,183.683312 L153,147.004724 C153,147.004724 149.685399,146.736322 141,150.245816" id="Fill-83" fill="#CAC9C3"></path>
                    <path d="M212,104.842217 C212,104.842217 196.176662,130.358315 195.350837,144 L182,142.168869 L189.076723,99 C189.076723,99 203.78072,101.881596 212,104.842217" id="Fill-84" fill="#CAC9C3"></path>
                    <path d="M202.19705,133.015704 C202.19705,133.015704 208.562862,136.743038 207.959692,145.085481 C207.357326,153.427924 203.132727,162.6532 198.464786,162.984263 C193.797648,163.315325 190.768948,158.383978 189.277488,151.882966 C188.323339,147.725745 189.201188,124.035842 202.19705,133.015704" id="Fill-85" fill="#F6D8CD"></path>
                    <path d="M12,87.7423409 C12,87.7423409 46.1164225,120.758953 50.1413437,139.667445 L119,144 L119,83.7958549 C119,83.7958549 60.0314273,61.5908011 12,87.7423409" id="Fill-86" fill="#CAC9C3"></path>
                    <path d="M43.8035228,133.015704 C43.8035228,133.015704 37.4378489,136.743038 38.0402026,145.085481 C38.6433594,153.427924 42.8678668,162.6532 47.5357064,162.984263 C52.2027429,163.315325 55.2313773,158.383978 56.7228051,151.882966 C57.6761302,147.725745 56.7991032,124.035842 43.8035228,133.015704" id="Fill-87" fill="#F6D8CD"></path>
                    <path d="M94,61 C94,61 104.745169,62.0103049 111,61 C111,61 110.240948,66.9284693 101.989931,66.9995948 C95.367677,67.0569801 94,61 94,61" id="Fill-88" fill="#FFFFFE"></path>
                    <g id="Group-91" transform="translate(94.000000, 63.000000)">
                        <mask id="mask-2" fill="white">
                            <use xlink:href="#path-1"></use>
                        </mask>
                        <g id="Clip-90"></g>
                        <path d="M9.80252381,4.605 C9.80252381,3.6765 8.99057143,2.92425 7.98838095,2.92425 C6.98619048,2.92425 6.1742381,3.6765 6.1742381,4.605 C6.1742381,5.5335 6.98619048,6.28575 7.98838095,6.28575 C8.99057143,6.28575 9.80252381,5.5335 9.80252381,4.605" id="Fill-89" fill="#2D2624" mask="url(#mask-2)"></path>
                    </g>
                    <path d="M134,61 C134,61 144.745169,62.0103049 151,61 C151,61 150.240083,66.9284693 141.989931,66.9995948 C135.366812,67.0569801 134,61 134,61" id="Fill-92" fill="#FFFFFE"></path>
                    <g id="Group-95" transform="translate(134.000000, 63.000000)">
                        <mask id="mask-4" fill="white">
                            <use xlink:href="#path-3"></use>
                        </mask>
                        <g id="Clip-94"></g>
                        <path d="M10.00025,4.605 C10.00025,3.6765 9.1477,2.92425 8.0954,2.92425 C7.0431,2.92425 6.19055,3.6765 6.19055,4.605 C6.19055,5.5335 7.0431,6.28575 8.0954,6.28575 C9.1477,6.28575 10.00025,5.5335 10.00025,4.605" id="Fill-93" fill="#2D2624" mask="url(#mask-4)"></path>
                    </g>
                </g>
                <g id="Group-2" transform="translate(510.000000, 193.000000)">
                    <path d="M285.660257,223.027147 L176.867186,171.46674 C176.867186,171.46674 165.971258,165.540307 158.523432,169.184862 C151.076504,172.829416 54.211635,266.356847 43.3803929,269.517611 C32.5491508,272.677478 17.2339398,279.883267 6.32273919,280.661812 C-4.58935986,281.440356 1.0176227,284.416562 5.4189378,286.784448 C9.82025291,289.153229 18.9831459,294.373685 29.9365719,290.382414 C40.8899978,286.391144 45.2320178,295.015155 46.8464622,295.780261 C48.4609066,296.546262 60.9560057,299.67119 66.4893186,291.439586 C72.0226315,283.207086 64.4885575,278.655873 70.9301638,270.126828 C77.3708717,261.596887 140.284792,228.403492 159.10111,206.246788 C159.10111,206.246788 258.352158,294.594974 290.52066,296.307055 C290.52066,296.307055 327.63671,294.843141 319.952601,256.920247 C317.432559,244.481459 285.660257,223.027147 285.660257,223.027147" id="Fill-98" fill="#F2C9BA"></path>
                    <path d="M274.155856,222.834706 L192.419863,167.594261 C192.419863,167.594261 182.154636,160.97574 175.311451,165.701191 C168.467367,170.425738 101.316198,269.195061 91.0509712,273.932253 C80.7857442,278.669445 66.6712819,288.097767 55.9779623,290.470427 C45.2855422,292.84399 51.2734414,294.991758 55.9779623,296.709611 C60.6833827,298.427464 70.5205172,302.293988 80.7857442,296.709611 C91.0509712,291.126137 96.6116772,299.092207 98.3222486,299.618762 C100.03282,300.146221 112.864803,301.434159 117.142131,292.414076 C121.41856,283.393992 113.291997,279.957383 118.42461,270.508288 C123.557224,261.058291 165.90151,227.433711 181.29935,202.58084 C181.29935,202.58084 258.685168,299.709983 290.794805,296.709611 C290.794805,296.709611 326.224858,288.319046 313.072704,251.620937 C308.758503,239.583321 274.155856,222.834706 274.155856,222.834706" id="Fill-99" fill="#F6D8CD"></path>
                    <path d="M289.574537,226.755906 C289.574537,226.755906 275.309644,216.275373 269,219.680562 C269,219.680562 276.634921,219.258046 278.837733,236.630415 C281.039648,254.001888 297.682322,293.593916 291.708259,297 C291.708259,297 320.205743,295.510454 333,261.239256 L289.574537,226.755906" id="Fill-100" fill="#4A4A4A"></path>
                    <path d="M223.921171,110.506655 C223.921171,110.506655 259.619558,170.477769 267.379726,167.864443 C275.139894,165.252014 333.319655,130.049668 333.319655,130.049668 C333.319655,130.049668 339.672386,128.110517 343.645642,130.815287 C347.618898,133.520953 349.184908,141.636158 341.941666,145.399705 C334.698424,149.162356 284.450842,188.913592 265.31202,185.829599 C241.497567,181.992538 213.269081,117.837414 213.269081,117.837414 C213.269081,117.837414 197.93061,113.347694 203.043433,98.8520297 C208.156257,84.3554693 218.808347,92.0295915 218.808347,92.0295915 C218.808347,92.0295915 227.329123,94.4483745 223.921171,110.506655" id="Fill-101" fill="#F2C9BA"></path>
                    <path d="M269,38.0789964 C269,38.0789964 271.327,99.3682337 301.963595,101.704268 C332.600191,104.040302 347.336962,92.3610294 358.1954,72.8949763 C369.053839,53.4298214 366.339453,21.8956057 335.702857,10.2163331 C305.066262,-1.4638376 271.327,21.1699173 269,38.0789964" id="Fill-102" fill="#F2C9BA"></path>
                    <path d="M360.176459,77.0685292 C360.176459,77.0685292 357.675279,93.0354808 371.506189,88.0277571 C385.336185,83.0191447 388.10675,67.0361967 381.7739,64.2421801 C375.440136,61.4472748 367.129353,64.2421801 367.129353,64.2421801 L360.176459,77.0685292" id="Fill-103" fill="#532A06"></path>
                    <path d="M322,100.175274 C322,100.175274 332.500454,112.549539 324.89749,130.519492 C324.89749,130.519492 335.776232,134.694609 346,118.430816 C346,118.430816 338.528576,104.980528 344.03417,88 C344.03417,88 326.311763,90.9968347 322,100.175274" id="Fill-104" fill="#F2C9BA"></path>
                    <path d="M344.695641,117.753021 C344.695641,117.753021 365.704399,132.573368 361.42492,175.61037 C357.145441,218.648276 335.654703,259.041662 335.654703,259.041662 C335.654703,259.041662 347.846012,279.042482 331.681287,283.356225 C315.516561,287.669967 313.594924,269.237946 312.610321,259.826061 C311.625718,250.414177 270.385473,227.16448 283.613442,219.768329 C296.841412,212.373083 302.288592,203.745598 301.899059,188.058521 C301.510423,172.371444 285.582649,166.504283 312.610321,139.63296 C339.637993,112.761637 333.412644,116.861864 344.695641,117.753021" id="Fill-105" fill="#F94666"></path>
                    <path d="M238,140 C238,140 239.556939,146.848867 246.173478,144.890111 L267,210.959939 C267,210.959939 265.285033,214.241104 260.20478,209.147616 L238,140" id="Fill-106" fill="#96453E"></path>
                    <polyline id="Fill-107" fill="#A74C43" points="246 146 295.170589 146 310 210.867499 266.881993 211 246 146"></polyline>
                    <path d="M238,139.794313 L246.200774,109 L247.957503,109 L239.601777,139.794313 C239.601777,139.794313 240.106274,144.79732 246.200774,143.338413 L296,143.604743 L295.404514,144.711877 L246.200774,144.711877 C246.200774,144.711877 239.451329,146.787979 238,139.794313" id="Fill-108" fill="#C45348"></path>
                    <polyline id="Fill-109" fill="#C45348" points="310.971143 211 296 146.083937 296.600773 145 312 209.657093 310.971143 211"></polyline>
                    <path d="M248.365872,109.988116 L256.730842,109 L248.365872,139.30341 L300.809741,138.027354 L316,204.374187 L311.748965,209 L296.466704,144.031164 L246.607009,143.769156 C246.607009,143.769156 241.609134,145.886675 240,140.282583 L248.365872,109.988116" id="Fill-110" fill="#FFF8E6"></path>
                    <polyline id="Fill-111" fill="#ECE6D4" points="256.037788 109 263 139.611219 248 140 256.037788 109"></polyline>
                    <polyline id="Fill-112" fill="#DAD5C5" points="248 139.875505 302.86035 134 318 200.768965 316.049471 203 301.069551 138.604572 248 139.875505"></polyline>
                    <path d="M179,85 L179,101.948181 C179,101.948181 180.428369,114 195.628783,114 C210.830078,114 209.991726,101.948181 209.991726,101.948181 L209.991726,85 L179,85" id="Fill-113" fill="#7CAEA7"></path>
                    <path d="M208.760656,107 C208.083593,107 207.437053,106.61493 207.148468,105.969532 C206.75814,105.099962 207.164193,104.085764 208.053069,103.705214 C214.327928,101.016958 217.335865,96.5506933 217.475532,93.5388344 C217.51438,92.6900542 217.351589,91.5646747 216.350793,91.0259388 C213.255912,89.3618235 210.332145,91.8566406 210.209127,91.964207 C209.484891,92.5942387 208.374952,92.5372918 207.727487,91.8349466 C207.080022,91.1326013 207.129969,90.0533217 207.844956,89.4160586 C208.04197,89.2406983 212.733315,85.1513675 218.049001,88.0140798 C220.036718,89.0843202 221.108735,91.1551993 220.991266,93.6952124 C220.797027,97.8704155 217.158274,103.558779 209.466392,106.854469 C209.237005,106.952996 208.996518,107 208.760656,107" id="Fill-114" fill="#74A19C"></path>
                    <path d="M218.308755,106 C218.308755,106 210.844705,99.3343828 213.617509,95.7783102 C216.389402,92.2231876 223,102.00025 223,102.00025 L218.308755,106" id="Fill-115" fill="#E3CAB6"></path>
                    <path d="M278.67335,85 C273.528617,85 268.677329,80.6547746 267.344706,74.4909855 C266.273223,69.5307869 267.770966,64.7436593 270.848114,62 C272.534309,69.6309396 275.102638,77.9673415 279,84.9947288 C278.890518,84.9982429 278.781934,85 278.67335,85" id="Fill-116" fill="#F2C9BA"></path>
                    <path d="M279.248361,86 C275.304875,78.793444 272.70615,70.2444991 271,62.4190027 C272.216733,61.3189646 273.676813,60.5396583 275.322127,60.1946013 C275.944114,60.0630652 276.568824,60 277.188087,60 C282.394615,60 287.303317,64.4569112 288.650803,70.7778509 C290.159916,77.8519699 286.637745,84.5828338 280.784714,85.8117052 C280.272596,85.9189161 279.758663,85.9810804 279.248361,86" id="Fill-117" fill="#F6D8CD"></path>
                    <path d="M305.188995,81 C300.059904,81 295.325762,76.3210965 294.230042,69.8366 C293.028594,62.730167 296.652161,56.1468077 302.324743,55.1321166 C302.82105,55.0431401 303.318231,55 303.811043,55 C308.93926,55 313.673402,59.6789035 314.769997,66.1634 C315.971444,73.269833 312.347004,79.8531923 306.675295,80.8678834 C306.178114,80.9568599 305.681807,81 305.188995,81" id="Fill-118" fill="#F6D8CD"></path>
                    <path d="M289.327488,70.2485565 L289.00362,70.3196691 C289.228381,71.4164444 289.336337,72.5050144 289.336337,73.5644099 C289.336337,76.4198548 288.554099,79.0665203 287.194916,81.116934 C285.834848,83.1682593 283.906685,84.6224211 281.593597,85.127503 C281.008688,85.255141 280.423779,85.3162249 279.84241,85.3162249 C274.968466,85.3253419 270.283002,80.9519163 268.99638,74.6812426 C268.771619,73.5835556 268.663663,72.4958973 268.663663,71.4355901 C268.663663,68.5810569 269.445901,65.9343914 270.805084,63.8839777 C272.165152,61.8326524 274.093315,60.3775789 276.406403,59.872497 C276.990427,59.7457707 277.575336,59.6837751 278.156705,59.6837751 C283.031534,59.6755698 287.716998,64.0489954 289.00362,70.3196691 L289.327488,70.2485565 L289.65224,70.1783556 C288.31164,63.6542293 283.429732,59.009117 278.156705,59 C277.530207,59 276.898399,59.0665541 276.269246,59.2042208 C273.771217,59.7475941 271.696163,61.323012 270.256456,63.4983285 C268.814979,65.6745568 268,68.4525072 268,71.4355901 C268,72.5433058 268.11238,73.6792841 268.34776,74.8225561 C269.68836,81.3457707 274.570268,85.9917947 279.84241,86 C280.469793,86 281.100716,85.9343576 281.730754,85.7966909 C284.227898,85.2524059 286.302952,83.6778997 287.743544,81.5025832 C289.184136,79.3263549 289.999115,76.5484045 290,73.5644099 C290,72.4576059 289.88762,71.3216276 289.65224,70.1783556 L289.327488,70.2485565" id="Fill-119" fill="#917D70"></path>
                    <path d="M315.433667,66.6409583 L315.105229,66.6991812 C315.259684,67.6098251 315.334248,68.5113717 315.334248,69.3938138 C315.334248,72.3622764 314.49185,75.1042151 313.047611,77.2029718 C311.602485,79.303548 309.565284,80.7582129 307.153486,81.1885171 C306.667043,81.2749419 306.181488,81.3176994 305.700371,81.3176994 C300.695691,81.3267967 295.984829,76.7344587 294.894771,70.3008188 C294.740316,69.3901749 294.665752,68.4886283 294.665752,67.6061862 C294.665752,64.6377236 295.50815,61.8957849 296.952389,59.7961185 C298.397515,57.696452 300.434716,56.2417871 302.847402,55.8114829 C303.332957,55.7241484 303.818512,55.6823006 304.300516,55.6823006 C309.304309,55.6732033 314.015171,60.2655413 315.105229,66.6991812 L315.433667,66.6409583 L315.761217,66.5818255 C314.625,59.8898211 309.717076,55.0100071 304.300516,55 C303.780342,55 303.256617,55.0454867 302.732892,55.1391893 C300.12847,55.602244 297.936814,57.1788133 296.408247,59.4031133 C294.877905,61.6292328 294.000888,64.5058122 294,67.6061862 C294,68.5277469 294.078115,69.468412 294.238783,70.4181745 C295.375,77.1101789 300.282924,81.9899929 305.700371,82 C306.219658,82 306.743383,81.9545133 307.267108,81.8608107 C309.87153,81.3968463 312.063186,79.8211867 313.591753,77.5968867 C315.122095,75.3707672 316,72.4941878 316,69.3938138 C316,68.4722531 315.922773,67.531588 315.761217,66.5818255 L315.433667,66.6409583" id="Fill-120" fill="#917D70"></path>
                    <path d="M289.64614,69.7599562 L289.647908,69.7482468 C289.664702,69.6592549 289.777843,69.1592612 290.040365,68.715473 C290.309075,68.2705137 290.68739,67.8829308 291.33353,67.878247 C292.02475,67.8747342 293.081025,68.3653603 294.579258,70 L295,69.3220226 C293.43901,67.622981 292.261638,67.0035509 291.33353,67.000038 C290.401002,66.9941833 289.784031,67.665135 289.450796,68.2939326 C289.111373,68.9262431 289.007071,69.528109 289,69.5608955 L289.64614,69.7599562" id="Fill-121" fill="#917D70"></path>
                    <polyline id="Fill-122" fill="#917D70" points="314.299198 65 339 53.6284612 338.700802 53 314 64.3706132"></polyline>
                    <path d="M342.47685,158.134613 L349.131139,228.796662 L286.301476,187.940169 C286.301476,187.940169 277.328895,160.172033 274.598423,162.927955 C271.86795,165.684785 274.598423,172.378386 274.598423,172.378386 C274.598423,172.378386 254.703053,177.890229 243,163.322177 C243,163.322177 244.950209,180.66886 258.604371,189.319946 C272.257632,197.971033 278.991117,195.608426 278.991117,195.608426 C278.991117,195.608426 338.306445,252.30738 352.0947,254.669988 C365.882955,257.032596 368.151749,246.32138 367.992457,234.942531 C367.833164,223.564589 362.558511,156.056317 362.558511,156.056317 C362.558511,156.056317 349.498321,141.134918 342.47685,158.134613" id="Fill-123" fill="#F6D8CD"></path>
                    <path d="M345.560457,135.466668 C345.560457,135.466668 336.519542,139.276474 339.664366,162.514973 C342.80919,185.752594 342.280518,188.419018 342.280518,188.419018 C342.280518,188.419018 355.780229,191.086322 366,184.990632 C366,184.990632 364.821144,129.371857 345.560457,135.466668" id="Fill-124" fill="#F16878"></path>
                    <path d="M299.287834,92.3323613 C299.324294,92.363877 299.790793,92.7654764 300.575147,93.1733789 C301.3595,93.5794806 302.471057,93.9981885 303.79296,93.9999894 C304.73998,94.0017903 305.790771,93.7748776 306.828474,93.189587 C307.868046,92.6060972 308.890791,91.6777363 309.849965,90.3090567 C310.120141,89.9254662 310.015436,89.4032069 309.616248,89.1438781 C309.217994,88.8845493 308.675771,88.9853994 308.406529,89.3689899 C307.560475,90.5737881 306.722834,91.3058516 305.950633,91.7398671 C305.176563,92.1720817 304.462325,92.3197551 303.79296,92.321556 C302.865571,92.3224564 302.016712,92.0163044 301.402504,91.6957452 C301.095868,91.5363661 300.849063,91.3769869 300.684526,91.2599288 L300.501292,91.1230609 L300.460158,91.0897443 L300.452679,91.0834412 L300.282533,91.2698337 L300.454549,91.0852421 L300.452679,91.0834412 L300.282533,91.2698337 L300.454549,91.0852421 C300.097429,90.7754883 299.545858,90.8034021 299.224263,91.1473729 C298.901734,91.4913437 298.930715,92.0226075 299.287834,92.3323613" id="Fill-125" fill="#1B1A1C"></path>
                    <path d="M278.75029,73.6311997 L278.743303,73.6282046 L278.75029,73.6319485 L278.75029,73.6311997 L278.743303,73.6282046 L278.75029,73.6319485 C278.781233,73.5900171 279.050733,73.2583102 279.527847,72.9610469 C280.012947,72.662286 280.664737,72.39722 281.586027,72.3957224 C282.33863,72.3964712 283.316815,72.576177 284.57448,73.1677085 C285.008675,73.3728726 285.583607,73.2747832 285.8571,72.9483177 C286.130592,72.6218522 285.999835,72.1913071 285.564643,71.986143 C284.085388,71.286788 282.748869,70.9992588 281.586027,71.0000075 C280.056865,70.9977612 278.908996,71.4986911 278.197317,71.9786553 C277.47865,72.4616146 277.145269,72.9266033 277.110334,72.9730273 C276.867784,73.3129707 277.038467,73.7360281 277.491626,73.9172314 C277.944785,74.0991835 278.508739,73.9711431 278.751288,73.6311997" id="Fill-126" fill="#1B1A1C"></path>
                    <path d="M301.79216,70.5813243 L301.431001,70.3885102 L301.784916,70.592395 L301.79216,70.5813243 L301.431001,70.3885102 L301.784916,70.592395 C301.788021,70.5868596 301.960839,70.3571433 302.302337,70.144033 C302.649009,69.9309227 303.146767,69.7224252 303.918759,69.7196575 C304.741458,69.7196575 305.918072,69.96967 307.521041,70.8673165 C307.972232,71.1200967 308.567265,70.9992419 308.851847,70.5979303 C309.135393,70.1956961 308.999829,69.6643042 308.548638,69.411524 C306.727318,68.3902551 305.191614,68.0000142 303.918759,68.0000142 C302.646939,67.9972465 301.683502,68.4004032 301.07605,68.8127855 C300.463424,69.2251678 300.181948,69.6329373 300.137449,69.6984387 C299.863216,70.1052857 300.012234,70.63391 300.469633,70.8774646 C300.925998,71.1219418 301.518962,70.9890938 301.79216,70.5813243" id="Fill-127" fill="#1B1A1C"></path>
                    <path d="M267.587083,37.9951459 C267.587083,37.9951459 276.253016,43.4549093 299.888041,28.789398 C299.888041,28.789398 295.161581,40.8189455 310.130673,47.2447222 C325.099764,53.6704988 322.341678,59.6839309 319.191008,63.85031 C316.039429,68.0166891 316.039429,75.7707338 324.705362,77.3217217 C324.705362,77.3217217 315.251534,70.9272511 322.73608,63.85031 C330.220625,56.7724745 321.541969,47.4674419 315.835867,45.1409601 C310.130673,42.8144783 305.009811,28.8564822 308.554883,26.5300005 C312.099955,24.2035187 333.372204,42.1794141 337.310769,60.7197117 C337.310769,60.7197117 338.886559,46.0998176 347.946894,51.8243402 C357.007229,57.5479684 344.795315,71.5059645 344.795315,71.5059645 C344.795315,71.5059645 345.577757,81.9970466 351.292039,82.9550097 C357.007229,83.9129728 370.794024,69.5667825 371.976321,40.4879966 C373.157708,11.4092107 329.826224,-4.09977328 310.918567,0.940489981 C292.010002,5.98075324 262.466221,19.605117 267.587083,37.9951459" id="Fill-128" fill="#532A06"></path>
                    <path d="M210,84.500361 C210,85.3285199 203.060609,86 194.50044,86 C185.940272,86 179,85.3285199 179,84.500361 C179,83.6714801 185.940272,83 194.50044,83 C203.060609,83 210,83.6714801 210,84.500361" id="Fill-129" fill="#FFFFFE"></path>
                    <path d="M210.106834,84.5 L209.214559,84.5 L209.807931,84.5 L209.350263,84.1400778 C209.309463,84.1789883 209.213672,84.3159857 209.214559,84.5 L209.807931,84.5 L209.350263,84.1400778 L209.527653,84.2795071 L209.382193,84.1108949 L209.350263,84.1400778 L209.527653,84.2795071 L209.382193,84.1108949 C209.38308,84.1149481 209.226976,84.1992542 208.978629,84.2746433 C208.540474,84.4140726 207.815833,84.5648508 206.898723,84.6969844 C204.135863,85.0998703 199.599983,85.3690013 194.5,85.3681907 C190.219562,85.3690013 186.341802,85.1801232 183.568298,84.8809987 C182.184651,84.7318418 181.070637,84.5518807 180.3593,84.3694877 C180.006293,84.2811284 179.751737,84.1854734 179.655946,84.1327821 L179.617807,84.1108949 L179.41913,84.3459792 L179.687876,84.1879053 L179.617807,84.1108949 L179.41913,84.3459792 L179.687876,84.1879053 L179.158365,84.5 L179.785441,84.5 C179.786328,84.3654345 179.732224,84.2462711 179.687876,84.1879053 L179.158365,84.5 L179.785441,84.5 L179.192069,84.5 L179.649737,84.8591115 C179.690537,84.820201 179.786328,84.6832036 179.785441,84.5 L179.192069,84.5 L179.649737,84.8591115 L179.472347,84.7196822 L179.617807,84.8891051 L179.649737,84.8591115 L179.472347,84.7196822 L179.617807,84.8891051 C179.61692,84.8842412 179.773024,84.8007458 180.021371,84.7253567 C180.459526,84.5859274 181.18328,84.4351492 182.101277,84.3022049 C184.864137,83.8993191 189.39913,83.6301881 194.5,83.6309987 C198.780438,83.6309987 202.657311,83.8190661 205.431702,84.1190013 C206.815349,84.2673476 207.929363,84.4473087 208.6407,84.6297017 C208.993707,84.718061 209.248263,84.8145266 209.344054,84.8672179 L209.382193,84.8891051 L209.58087,84.6540208 L209.311237,84.8120947 L209.382193,84.8891051 L209.58087,84.6540208 L209.311237,84.8120947 L209.841635,84.5 L209.214559,84.5 C209.213672,84.6337549 209.267776,84.7537289 209.311237,84.8120947 L209.841635,84.5 L209.214559,84.5 L210.999996,84.5 C211.000883,84.2000649 210.850101,83.9479572 210.702867,83.7955577 C210.417268,83.5077821 210.128121,83.3910506 209.790192,83.2605383 C209.202141,83.0489624 208.433153,82.885214 207.457504,82.7328145 C204.548296,82.2845331 199.842121,82.0008106 194.5,82 C190.161023,82.0008106 186.23448,82.1888781 183.358977,82.4993515 C181.919451,82.6549935 180.747786,82.8381971 179.879458,83.05869 C179.44219,83.1713684 179.083861,83.2872892 178.763671,83.4542802 C178.604019,83.5402075 178.447915,83.6374838 178.297133,83.7955577 C178.149899,83.9479572 177.999117,84.2000649 178.000004,84.5 C177.999117,84.7999351 178.149899,85.0512322 178.297133,85.2036316 C178.582732,85.4922179 178.871879,85.6089494 179.208922,85.7386511 C179.797859,85.950227 180.566847,86.1139754 181.542496,86.2663748 C184.451704,86.7154669 189.157879,86.9983787 194.5,87 C198.838977,86.9991894 202.76552,86.8103113 205.641023,86.5006485 C207.080549,86.3441958 208.252214,86.1618029 209.120542,85.9404994 C209.556923,85.827821 209.916139,85.7119001 210.236329,85.5457198 C210.395981,85.4597925 210.552085,85.3617056 210.702867,85.2036316 C210.850101,85.0512322 211.000883,84.7999351 210.999996,84.5 L210.106834,84.5" id="Fill-130" fill="#917D70"></path>
                    <path d="M186.914295,73 C186.914295,73 180.357132,69.2544074 186.914295,59.6865564 C193.47241,50.1187054 185.457253,43 185.457253,43 C185.457253,43 198.651522,44.7466775 190.13863,61.165627 C190.13863,61.165627 185.665674,67.9190851 186.914295,73" id="Fill-131" fill="#DEC48B"></path>
                    <path d="M195.25527,76 C195.25527,76 188.434264,63.4904158 198.517097,58.681215 C198.517097,58.681215 199.812248,58 201.23845,58 C202.454066,58 203.765485,58.4954291 204.447857,60.3320554 C205.930095,64.3220289 204.151409,67.5193158 202.37182,68.3880861 C202.37182,68.3880861 204.118872,61.0327337 200.993519,61.0327337 C200.473832,61.0327337 199.819478,61.2353288 198.999728,61.7095252 C193.251537,65.0350929 195.25527,76 195.25527,76" id="Fill-132" fill="#DEC48B"></path>
                </g>
            </g>
            <text id="Get-lost-in-a-book" font-family="SavoyeLetPlain, Savoye LET" font-size="47" font-weight="normal" letter-spacing="0.150400013" fill="#4A4A4A">
                <tspan x="382.306068" y="405">Get lost in a book</tspan>
            </text>
            <text id="Go-to-my-reading-lis" font-family="SFProText-Regular, SF Pro Text" font-size="16" font-weight="normal" letter-spacing="0.051199995" fill="#4A4A4A" text-decoration="underline">
                <tspan x="355.314519" y="444">Go to my reading list for inspiration</tspan>
            </text>
            <text id="404" font-family="SavoyeLetPlain, Savoye LET" font-size="247" font-weight="normal" letter-spacing="0.790400088" fill="#4A4A4A">
                <tspan x="384.404976" y="170">404</tspan>
            </text>
            <text id="You-really-shouldnt" font-family="SFProText-Regular, SF Pro Text" font-size="21" font-weight="normal" letter-spacing="0.0671999753" fill="#4A4A4A">
                <tspan x="239.853905" y="269">You really shouldnt be here, this is a secret page for </tspan>
                <tspan x="244.9945" y="294">those who want to go to places that dont exist. But </tspan>
                <tspan x="265.244775" y="319">since you </tspan>
                <tspan x="365.594998" y="319" font-family="SFProText-Italic, SF Pro Text" font-style="italic">are </tspan>
                <tspan x="403.19827" y="319">here, why dont you read with us?</tspan>
            </text>
        </g>
    </g>
</svg>