<?xml version="1.0" encoding="UTF-8"?>
<svg width="113px" height="113px" viewBox="0 0 113 113" version="1.1" xmlns="http://www.w3.org/2000/svg" xmlns:xlink="http://www.w3.org/1999/xlink">
    <!-- Generator: Sketch 48.2 (47327) - http://www.bohemiancoding.com/sketch -->
    <title>twitter</title>
    <desc>Created with Sketch.</desc>
    <defs></defs>
    <g id="Page-1" stroke="none" stroke-width="1" fill="none" fill-rule="evenodd">
        <g id="twitter" fill-rule="nonzero">
            <circle id="Oval" fill="#4F4F4F" cx="56.099" cy="56.098" r="56.098"></circle>
            <path d="M90.461,40.316 C88.057,41.382 85.471,42.103 82.759,42.425 C85.528,40.766 87.653,38.141 88.656,35.008 C86.065,36.545 83.194,37.66 80.141,38.261 C77.695,35.656 74.21,34.028 70.351,34.028 C62.947,34.028 56.942,40.033 56.942,47.437 C56.942,48.488 57.061,49.511 57.291,50.493 C46.147,49.934 36.266,44.596 29.652,36.481 C28.498,38.461 27.836,40.766 27.836,43.223 C27.836,47.874 30.205,51.98 33.801,54.384 C31.604,54.315 29.535,53.712 27.728,52.705 C27.727,52.762 27.727,52.819 27.727,52.875 C27.727,59.372 32.351,64.791 38.484,66.022 C37.36,66.33 36.173,66.493 34.952,66.493 C34.086,66.493 33.247,66.41 32.429,66.254 C34.135,71.58 39.086,75.457 44.955,75.566 C40.365,79.163 34.584,81.306 28.3,81.306 C27.22,81.306 26.15,81.243 25.103,81.118 C31.034,84.924 38.084,87.143 45.656,87.143 C70.32,87.143 83.808,66.711 83.808,48.99 C83.808,48.409 83.795,47.83 83.769,47.256 C86.391,45.366 88.664,43.005 90.461,40.316 Z" id="Shape" fill="#F1F2F2"></path>
        </g>
    </g>
</svg>